<mxfile host="app.diagrams.net" modified="2021-09-09T17:45:16.384Z" agent="5.0 (Windows NT 10.0; Win64; x64) AppleWebKit/537.36 (KHTML, like Gecko) Chrome/86.0.4240.183 Safari/537.36" etag="06uLra36RAHBTA2PPb9B" version="15.1.4" type="github">
  <diagram id="W2Y2cZLhiV-dC1Y5wDyN" name="Page-1">
    <mxGraphModel dx="2249" dy="1963" grid="1" gridSize="10" guides="1" tooltips="1" connect="1" arrows="1" fold="1" page="1" pageScale="1" pageWidth="827" pageHeight="1169" math="0" shadow="0">
      <root>
        <mxCell id="0" />
        <mxCell id="1" parent="0" />
        <mxCell id="s6QGizd8DZzs-lx8WIDt-5" value="C_Marker" style="swimlane;fontStyle=1;align=center;verticalAlign=top;childLayout=stackLayout;horizontal=1;startSize=26;horizontalStack=0;resizeParent=1;resizeParentMax=0;resizeLast=0;collapsible=1;marginBottom=0;" vertex="1" parent="1">
          <mxGeometry x="240" y="130" width="220" height="138" as="geometry" />
        </mxCell>
        <mxCell id="s6QGizd8DZzs-lx8WIDt-6" value=". valueOfInk: float" style="text;strokeColor=none;fillColor=none;align=left;verticalAlign=top;spacingLeft=4;spacingRight=4;overflow=hidden;rotatable=0;points=[[0,0.5],[1,0.5]];portConstraint=eastwest;" vertex="1" parent="s6QGizd8DZzs-lx8WIDt-5">
          <mxGeometry y="26" width="220" height="26" as="geometry" />
        </mxCell>
        <mxCell id="s6QGizd8DZzs-lx8WIDt-41" value=". color:string" style="text;strokeColor=none;fillColor=none;align=left;verticalAlign=top;spacingLeft=4;spacingRight=4;overflow=hidden;rotatable=0;points=[[0,0.5],[1,0.5]];portConstraint=eastwest;" vertex="1" parent="s6QGizd8DZzs-lx8WIDt-5">
          <mxGeometry y="52" width="220" height="26" as="geometry" />
        </mxCell>
        <mxCell id="s6QGizd8DZzs-lx8WIDt-7" value="" style="line;strokeWidth=1;fillColor=none;align=left;verticalAlign=middle;spacingTop=-1;spacingLeft=3;spacingRight=3;rotatable=0;labelPosition=right;points=[];portConstraint=eastwest;" vertex="1" parent="s6QGizd8DZzs-lx8WIDt-5">
          <mxGeometry y="78" width="220" height="8" as="geometry" />
        </mxCell>
        <mxCell id="s6QGizd8DZzs-lx8WIDt-8" value=". virtual drawing(string, C_Board&amp;):void" style="text;strokeColor=none;fillColor=none;align=left;verticalAlign=top;spacingLeft=4;spacingRight=4;overflow=hidden;rotatable=0;points=[[0,0.5],[1,0.5]];portConstraint=eastwest;" vertex="1" parent="s6QGizd8DZzs-lx8WIDt-5">
          <mxGeometry y="86" width="220" height="26" as="geometry" />
        </mxCell>
        <mxCell id="s6QGizd8DZzs-lx8WIDt-36" value=". C_Marker(string)" style="text;strokeColor=none;fillColor=none;align=left;verticalAlign=top;spacingLeft=4;spacingRight=4;overflow=hidden;rotatable=0;points=[[0,0.5],[1,0.5]];portConstraint=eastwest;" vertex="1" parent="s6QGizd8DZzs-lx8WIDt-5">
          <mxGeometry y="112" width="220" height="26" as="geometry" />
        </mxCell>
        <mxCell id="s6QGizd8DZzs-lx8WIDt-9" value="C_Board" style="swimlane;fontStyle=1;align=center;verticalAlign=top;childLayout=stackLayout;horizontal=1;startSize=26;horizontalStack=0;resizeParent=1;resizeParentMax=0;resizeLast=0;collapsible=1;marginBottom=0;" vertex="1" parent="1">
          <mxGeometry x="60" y="-70" width="160" height="60" as="geometry" />
        </mxCell>
        <mxCell id="s6QGizd8DZzs-lx8WIDt-10" value="+ dimension:const char* [][]" style="text;strokeColor=none;fillColor=none;align=left;verticalAlign=top;spacingLeft=4;spacingRight=4;overflow=hidden;rotatable=0;points=[[0,0.5],[1,0.5]];portConstraint=eastwest;" vertex="1" parent="s6QGizd8DZzs-lx8WIDt-9">
          <mxGeometry y="26" width="160" height="26" as="geometry" />
        </mxCell>
        <mxCell id="s6QGizd8DZzs-lx8WIDt-11" value="" style="line;strokeWidth=1;fillColor=none;align=left;verticalAlign=middle;spacingTop=-1;spacingLeft=3;spacingRight=3;rotatable=0;labelPosition=right;points=[];portConstraint=eastwest;" vertex="1" parent="s6QGizd8DZzs-lx8WIDt-9">
          <mxGeometry y="52" width="160" height="8" as="geometry" />
        </mxCell>
        <mxCell id="s6QGizd8DZzs-lx8WIDt-23" value="C_GreenMarker" style="swimlane;fontStyle=1;align=center;verticalAlign=top;childLayout=stackLayout;horizontal=1;startSize=26;horizontalStack=0;resizeParent=1;resizeParentMax=0;resizeLast=0;collapsible=1;marginBottom=0;" vertex="1" parent="1">
          <mxGeometry x="610" y="140" width="180" height="86" as="geometry" />
        </mxCell>
        <mxCell id="s6QGizd8DZzs-lx8WIDt-26" value="" style="line;strokeWidth=1;fillColor=none;align=left;verticalAlign=middle;spacingTop=-1;spacingLeft=3;spacingRight=3;rotatable=0;labelPosition=right;points=[];portConstraint=eastwest;" vertex="1" parent="s6QGizd8DZzs-lx8WIDt-23">
          <mxGeometry y="26" width="180" height="8" as="geometry" />
        </mxCell>
        <mxCell id="s6QGizd8DZzs-lx8WIDt-27" value="- C_Marker():base(&quot;Green&quot;)" style="text;strokeColor=none;fillColor=none;align=left;verticalAlign=top;spacingLeft=4;spacingRight=4;overflow=hidden;rotatable=0;points=[[0,0.5],[1,0.5]];portConstraint=eastwest;" vertex="1" parent="s6QGizd8DZzs-lx8WIDt-23">
          <mxGeometry y="34" width="180" height="26" as="geometry" />
        </mxCell>
        <mxCell id="s6QGizd8DZzs-lx8WIDt-56" value="- drawing(string, C_Board&amp;):void" style="text;strokeColor=none;fillColor=none;align=left;verticalAlign=top;spacingLeft=4;spacingRight=4;overflow=hidden;rotatable=0;points=[[0,0.5],[1,0.5]];portConstraint=eastwest;" vertex="1" parent="s6QGizd8DZzs-lx8WIDt-23">
          <mxGeometry y="60" width="180" height="26" as="geometry" />
        </mxCell>
        <mxCell id="s6QGizd8DZzs-lx8WIDt-28" value="C_BlackMarker" style="swimlane;fontStyle=1;align=center;verticalAlign=top;childLayout=stackLayout;horizontal=1;startSize=26;horizontalStack=0;resizeParent=1;resizeParentMax=0;resizeLast=0;collapsible=1;marginBottom=0;" vertex="1" parent="1">
          <mxGeometry x="470" y="-70" width="160" height="86" as="geometry" />
        </mxCell>
        <mxCell id="s6QGizd8DZzs-lx8WIDt-31" value="" style="line;strokeWidth=1;fillColor=none;align=left;verticalAlign=middle;spacingTop=-1;spacingLeft=3;spacingRight=3;rotatable=0;labelPosition=right;points=[];portConstraint=eastwest;" vertex="1" parent="s6QGizd8DZzs-lx8WIDt-28">
          <mxGeometry y="26" width="160" height="8" as="geometry" />
        </mxCell>
        <mxCell id="s6QGizd8DZzs-lx8WIDt-32" value="- C_Marker():base(&quot;Black&quot;)" style="text;strokeColor=none;fillColor=none;align=left;verticalAlign=top;spacingLeft=4;spacingRight=4;overflow=hidden;rotatable=0;points=[[0,0.5],[1,0.5]];portConstraint=eastwest;" vertex="1" parent="s6QGizd8DZzs-lx8WIDt-28">
          <mxGeometry y="34" width="160" height="26" as="geometry" />
        </mxCell>
        <mxCell id="s6QGizd8DZzs-lx8WIDt-55" value="- drawing(string):void" style="text;strokeColor=none;fillColor=none;align=left;verticalAlign=top;spacingLeft=4;spacingRight=4;overflow=hidden;rotatable=0;points=[[0,0.5],[1,0.5]];portConstraint=eastwest;" vertex="1" parent="s6QGizd8DZzs-lx8WIDt-28">
          <mxGeometry y="60" width="160" height="26" as="geometry" />
        </mxCell>
        <mxCell id="s6QGizd8DZzs-lx8WIDt-34" value="dispatch" style="html=1;verticalAlign=bottom;endArrow=block;entryX=1.006;entryY=0.923;entryDx=0;entryDy=0;entryPerimeter=0;exitX=0;exitY=0.25;exitDx=0;exitDy=0;" edge="1" parent="1" source="s6QGizd8DZzs-lx8WIDt-23" target="s6QGizd8DZzs-lx8WIDt-41">
          <mxGeometry width="80" relative="1" as="geometry">
            <mxPoint x="400" y="195" as="sourcePoint" />
            <mxPoint x="608.0799999999999" y="172.99400000000014" as="targetPoint" />
          </mxGeometry>
        </mxCell>
        <mxCell id="s6QGizd8DZzs-lx8WIDt-35" value="dispatch" style="html=1;verticalAlign=bottom;endArrow=block;exitX=0.388;exitY=1.154;exitDx=0;exitDy=0;exitPerimeter=0;entryX=1;entryY=0.5;entryDx=0;entryDy=0;" edge="1" parent="1" source="s6QGizd8DZzs-lx8WIDt-55" target="s6QGizd8DZzs-lx8WIDt-6">
          <mxGeometry width="80" relative="1" as="geometry">
            <mxPoint x="400.96000000000004" y="184.00199999999995" as="sourcePoint" />
            <mxPoint x="401" y="160" as="targetPoint" />
          </mxGeometry>
        </mxCell>
        <mxCell id="s6QGizd8DZzs-lx8WIDt-33" value="dispatch" style="html=1;verticalAlign=bottom;endArrow=block;exitX=0.25;exitY=0;exitDx=0;exitDy=0;entryX=1.014;entryY=0.923;entryDx=0;entryDy=0;entryPerimeter=0;" edge="1" parent="1" source="s6QGizd8DZzs-lx8WIDt-37" target="s6QGizd8DZzs-lx8WIDt-8">
          <mxGeometry width="80" relative="1" as="geometry">
            <mxPoint x="400" y="195" as="sourcePoint" />
            <mxPoint x="400" y="230" as="targetPoint" />
          </mxGeometry>
        </mxCell>
        <mxCell id="s6QGizd8DZzs-lx8WIDt-37" value="C_RedMarker" style="swimlane;fontStyle=1;align=center;verticalAlign=top;childLayout=stackLayout;horizontal=1;startSize=26;horizontalStack=0;resizeParent=1;resizeParentMax=0;resizeLast=0;collapsible=1;marginBottom=0;" vertex="1" parent="1">
          <mxGeometry x="520" y="350" width="180" height="86" as="geometry" />
        </mxCell>
        <mxCell id="s6QGizd8DZzs-lx8WIDt-38" value="" style="line;strokeWidth=1;fillColor=none;align=left;verticalAlign=middle;spacingTop=-1;spacingLeft=3;spacingRight=3;rotatable=0;labelPosition=right;points=[];portConstraint=eastwest;" vertex="1" parent="s6QGizd8DZzs-lx8WIDt-37">
          <mxGeometry y="26" width="180" height="8" as="geometry" />
        </mxCell>
        <mxCell id="s6QGizd8DZzs-lx8WIDt-39" value="- C_Marker():base(&quot;Red&quot;)" style="text;strokeColor=none;fillColor=none;align=left;verticalAlign=top;spacingLeft=4;spacingRight=4;overflow=hidden;rotatable=0;points=[[0,0.5],[1,0.5]];portConstraint=eastwest;" vertex="1" parent="s6QGizd8DZzs-lx8WIDt-37">
          <mxGeometry y="34" width="180" height="26" as="geometry" />
        </mxCell>
        <mxCell id="s6QGizd8DZzs-lx8WIDt-57" value="- drawing(string, C_Board&amp;):void" style="text;strokeColor=none;fillColor=none;align=left;verticalAlign=top;spacingLeft=4;spacingRight=4;overflow=hidden;rotatable=0;points=[[0,0.5],[1,0.5]];portConstraint=eastwest;" vertex="1" parent="s6QGizd8DZzs-lx8WIDt-37">
          <mxGeometry y="60" width="180" height="26" as="geometry" />
        </mxCell>
        <mxCell id="s6QGizd8DZzs-lx8WIDt-42" value="C_Human" style="swimlane;fontStyle=1;align=center;verticalAlign=top;childLayout=stackLayout;horizontal=1;startSize=26;horizontalStack=0;resizeParent=1;resizeParentMax=0;resizeLast=0;collapsible=1;marginBottom=0;" vertex="1" parent="1">
          <mxGeometry x="-120" y="140" width="190" height="138" as="geometry" />
        </mxCell>
        <mxCell id="s6QGizd8DZzs-lx8WIDt-43" value="+marcer:C_Marker" style="text;strokeColor=none;fillColor=none;align=left;verticalAlign=top;spacingLeft=4;spacingRight=4;overflow=hidden;rotatable=0;points=[[0,0.5],[1,0.5]];portConstraint=eastwest;" vertex="1" parent="s6QGizd8DZzs-lx8WIDt-42">
          <mxGeometry y="26" width="190" height="26" as="geometry" />
        </mxCell>
        <mxCell id="s6QGizd8DZzs-lx8WIDt-49" value="+ board:C_Board" style="text;strokeColor=none;fillColor=none;align=left;verticalAlign=top;spacingLeft=4;spacingRight=4;overflow=hidden;rotatable=0;points=[[0,0.5],[1,0.5]];portConstraint=eastwest;" vertex="1" parent="s6QGizd8DZzs-lx8WIDt-42">
          <mxGeometry y="52" width="190" height="26" as="geometry" />
        </mxCell>
        <mxCell id="s6QGizd8DZzs-lx8WIDt-44" value="" style="line;strokeWidth=1;fillColor=none;align=left;verticalAlign=middle;spacingTop=-1;spacingLeft=3;spacingRight=3;rotatable=0;labelPosition=right;points=[];portConstraint=eastwest;" vertex="1" parent="s6QGizd8DZzs-lx8WIDt-42">
          <mxGeometry y="78" width="190" height="8" as="geometry" />
        </mxCell>
        <mxCell id="s6QGizd8DZzs-lx8WIDt-45" value="- draw(string):void" style="text;strokeColor=none;fillColor=none;align=left;verticalAlign=top;spacingLeft=4;spacingRight=4;overflow=hidden;rotatable=0;points=[[0,0.5],[1,0.5]];portConstraint=eastwest;" vertex="1" parent="s6QGizd8DZzs-lx8WIDt-42">
          <mxGeometry y="86" width="190" height="26" as="geometry" />
        </mxCell>
        <mxCell id="s6QGizd8DZzs-lx8WIDt-48" value="- changeMarker(C_Marker&amp;):void" style="text;strokeColor=none;fillColor=none;align=left;verticalAlign=top;spacingLeft=4;spacingRight=4;overflow=hidden;rotatable=0;points=[[0,0.5],[1,0.5]];portConstraint=eastwest;" vertex="1" parent="s6QGizd8DZzs-lx8WIDt-42">
          <mxGeometry y="112" width="190" height="26" as="geometry" />
        </mxCell>
        <mxCell id="s6QGizd8DZzs-lx8WIDt-58" value="" style="endArrow=diamondThin;endFill=0;endSize=24;html=1;entryX=0.005;entryY=0.125;entryDx=0;entryDy=0;entryPerimeter=0;" edge="1" parent="1" target="s6QGizd8DZzs-lx8WIDt-7">
          <mxGeometry width="160" relative="1" as="geometry">
            <mxPoint x="70" y="208.5" as="sourcePoint" />
            <mxPoint x="230" y="208.5" as="targetPoint" />
          </mxGeometry>
        </mxCell>
        <mxCell id="s6QGizd8DZzs-lx8WIDt-61" value="1" style="endArrow=open;html=1;endSize=12;startArrow=diamondThin;startSize=14;startFill=1;edgeStyle=orthogonalEdgeStyle;align=left;verticalAlign=bottom;exitX=0.45;exitY=-0.014;exitDx=0;exitDy=0;exitPerimeter=0;" edge="1" parent="1" source="s6QGizd8DZzs-lx8WIDt-5">
          <mxGeometry x="-0.8335" y="-11" relative="1" as="geometry">
            <mxPoint x="330" y="190" as="sourcePoint" />
            <mxPoint x="140" y="-10" as="targetPoint" />
            <Array as="points">
              <mxPoint x="339" y="20" />
              <mxPoint x="140" y="20" />
            </Array>
            <mxPoint as="offset" />
          </mxGeometry>
        </mxCell>
      </root>
    </mxGraphModel>
  </diagram>
</mxfile>
